<svg width="20" height="20" viewBox="0 0 20 20" fill="none" xmlns="http://www.w3.org/2000/svg">
<g id="check-circle-broken" clip-path="url(#clip0_3707_19)">
<path id="Icon" d="M18.3332 9.23806V10.0047C18.3321 11.8017 17.7503 13.5503 16.6743 14.9896C15.5983 16.4289 14.0859 17.4818 12.3626 17.9913C10.6394 18.5008 8.79755 18.4396 7.1119 17.8169C5.42624 17.1941 3.98705 16.0431 3.00897 14.5356C2.03089 13.0281 1.56633 11.2448 1.68457 9.45166C1.80281 7.65853 2.49751 5.95167 3.66507 4.58562C4.83263 3.21958 6.41049 2.26755 8.16333 1.87152C9.91617 1.47549 11.7501 1.65668 13.3915 2.38806M18.3332 3.33329L9.99984 11.675L7.49984 9.17496" stroke="#FEFEFE" stroke-width="1.6" stroke-linecap="round" stroke-linejoin="round"/>
</g>
<defs>
<clipPath id="clip0_3707_19">
<rect width="20" height="20" fill="white"/>
</clipPath>
</defs>
</svg>
